<svg width="40" height="40" viewBox="0 0 40 40" fill="none" xmlns="http://www.w3.org/2000/svg">
<path d="M15.5166 11.1835C15.3621 11.3376 15.2396 11.5208 15.1559 11.7224C15.0723 11.924 15.0292 12.1402 15.0292 12.3585C15.0292 12.5767 15.0723 12.7929 15.1559 12.9945C15.2396 13.1961 15.3621 13.3793 15.5166 13.5335L21.9833 20.0001L15.5166 26.4668C15.205 26.7784 15.0299 27.2011 15.0299 27.6418C15.0299 28.0825 15.205 28.5052 15.5166 28.8168C15.8283 29.1284 16.2509 29.3035 16.6916 29.3035C17.1324 29.3035 17.555 29.1284 17.8666 28.8168L25.5166 21.1668C25.6711 21.0126 25.7937 20.8294 25.8774 20.6278C25.961 20.4262 26.004 20.2101 26.004 19.9918C26.004 19.7735 25.961 19.5574 25.8774 19.3557C25.7937 19.1541 25.6711 18.971 25.5166 18.8168L17.8666 11.1668C17.2333 10.5335 16.1666 10.5335 15.5166 11.1835Z" fill="white"/>
</svg>
